<?xml version="1.0" encoding="utf-8"?>
<!-- Generator: Adobe Illustrator 15.0.0, SVG Export Plug-In . SVG Version: 6.00 Build 0)  -->
<!DOCTYPE svg PUBLIC "-//W3C//DTD SVG 1.1//EN" "http://www.w3.org/Graphics/SVG/1.1/DTD/svg11.dtd">
<svg version="1.1" id="Layer_1" xmlns="http://www.w3.org/2000/svg" xmlns:xlink="http://www.w3.org/1999/xlink" x="0px" y="0px"
	 width="102px" height="30px" viewBox="0 0 102 30" enable-background="new 0 0 102 30" xml:space="preserve">
<g>
	<path fill="#3D474E" d="M22.107,26h-2.453l-3.125-7.43H6.347L3.262,26H0.477l9.831-22h2.457L22.107,26z M15.755,16.602
		L11.578,6.549L7.304,16.602H15.755z"/>
	<path fill="#3D474E" d="M38.564,18.197H23.938c0.17,1.64,0.865,2.992,2.084,4.059c1.22,1.066,2.657,1.59,4.316,1.571
		c2.566-0.037,4.406-1.229,5.51-3.571h2.317c-0.61,1.753-1.638,3.141-3.087,4.172c-1.446,1.029-3.055,1.553-4.827,1.569
		c-2.229,0.04-4.199-0.774-5.917-2.44c-1.712-1.666-2.591-3.654-2.627-5.962c-0.059-2.436,0.804-4.539,2.586-6.298
		c1.777-1.762,3.881-2.576,6.298-2.442c2.173,0.132,4.059,1.029,5.659,2.685c1.542,1.639,2.312,3.466,2.312,5.485L38.564,18.197
		L38.564,18.197z M36.421,16.197c-0.303-1.523-1.019-2.757-2.142-3.699c-1.122-0.942-2.465-1.426-4.026-1.444
		c-1.563-0.021-2.93,0.447-4.101,1.398c-1.171,0.955-1.909,2.203-2.214,3.743L36.421,16.197L36.421,16.197z"/>
	<path fill="#3D474E" d="M57.683,20.798l-0.229,0.49c-1.714,3.16-4.362,4.723-7.942,4.682c-2.362-0.021-4.402-0.845-6.116-2.485
		c-1.715-1.637-2.583-3.627-2.604-5.969c-0.035-2.364,0.809-4.389,2.533-6.074c1.722-1.687,3.783-2.55,6.185-2.587
		c1.712-0.021,3.312,0.426,4.797,1.343c1.411,0.873,2.42,1.978,3.03,3.313l0.313,0.715h-2.461c-1.22-2.116-3.09-3.203-5.609-3.259
		c-1.679-0.036-3.188,0.572-4.524,1.833c-1.394,1.297-2.086,2.834-2.086,4.608c0,1.775,0.644,3.301,1.944,4.568
		c1.299,1.268,2.835,1.894,4.608,1.875c2.538-0.037,4.438-1.059,5.697-3.059L57.683,20.798L57.683,20.798z"/>
	<path fill="#3D474E" d="M84.979,11.169c-1.011,0.04-1.828,0.314-2.455,0.83c-0.635,0.513-1.059,0.961-1.289,1.341
		c-0.361,0.631-0.543,1.468-0.543,2.516V25.6h-2.287V9.312h2.025v2.313c0.459-0.874,1.133-1.552,2.032-2.025
		c0.813-0.44,1.656-0.64,2.513-0.603v2.171L84.979,11.169L84.979,11.169z"/>
	<path fill="#3D474E" d="M101.521,18.197H86.891c0.176,1.64,0.868,2.992,2.088,4.059c1.221,1.066,2.654,1.59,4.313,1.571
		c2.569-0.037,4.408-1.229,5.515-3.571h2.312c-0.604,1.753-1.636,3.141-3.082,4.172c-1.449,1.029-3.056,1.553-4.828,1.569
		c-2.229,0.04-4.2-0.774-5.914-2.44s-2.594-3.654-2.63-5.962c-0.057-2.436,0.807-4.539,2.587-6.298
		c1.782-1.762,3.881-2.576,6.301-2.442c2.169,0.132,4.06,1.029,5.656,2.685c1.545,1.639,2.315,3.466,2.315,5.485v1.172H101.521z
		 M99.381,16.197c-0.306-1.523-1.021-2.757-2.143-3.699c-1.125-0.942-2.467-1.426-4.029-1.444c-1.559-0.021-2.93,0.447-4.098,1.398
		c-1.174,0.955-1.911,2.203-2.219,3.743L99.381,16.197L99.381,16.197z"/>
	<path fill="#DC4B4C" d="M73.848,16.441c-0.201-1.362-0.793-2.557-1.771-3.577c-1.177-1.225-2.597-1.837-4.252-1.837
		c-1.738-0.021-3.218,0.594-4.438,1.822c-1.016,1.027-1.617,2.221-1.803,3.592h-2.178c0.217-1.938,1.043-3.63,2.484-5.083
		c1.698-1.707,3.715-2.521,6.058-2.447c2.27,0.078,4.192,0.95,5.771,2.613c1.344,1.418,2.116,3.054,2.32,4.917H73.848L73.848,16.441
		z M59.396,18.441c0.19,1.884,0.963,3.537,2.308,4.957c1.573,1.658,3.493,2.515,5.761,2.57c2.346,0.079,4.367-0.736,6.072-2.441
		c1.461-1.461,2.296-3.155,2.504-5.086h-2.188c-0.197,1.322-0.787,2.504-1.775,3.552c-1.271,1.337-2.805,1.96-4.598,1.868
		c-1.683-0.062-3.104-0.732-4.269-2.026c-0.901-1-1.442-2.134-1.626-3.394H59.396z"/>
	<circle fill="#3D474E" cx="67.721" cy="17.443" r="2.238"/>
</g>
</svg>
